<svg xmlns="http://www.w3.org/2000/svg" viewBox="0 0 64 64" width="64" height="64">
  <rect width="64" height="64" rx="14" fill="#050a16" />
  <path d="M32 56 L26 24 L38 24 Z" fill="#7cc9ff" opacity="0.35" />
  <g fill="#c9d2dc">
    <path d="M32 14 C34.4 14 35.8 17.6 36 22.6 L36 38 L34.4 40.6 L29.6 40.6 L28 38 L28 22.6 C28.2 17.6 29.6 14 32 14 Z" />
    <path d="M28.6 29 L9 36.6 L9 39.6 L28.6 36.2 Z" />
    <path d="M35.4 29 L55 36.6 L55 39.6 L35.4 36.2 Z" />
    <path d="M29.6 40 L21 44 L21 46 L29.6 43.6 Z" />
    <path d="M34.4 40 L43 44 L43 46 L34.4 43.6 Z" />
  </g>
</svg>
